<svg xmlns="http://www.w3.org/2000/svg" xmlns:xlink="http://www.w3.org/1999/xlink" width="160" zoomAndPan="magnify" viewBox="0 0 120 30.000001" height="40" preserveAspectRatio="xMidYMid meet" version="1.0"><defs><clipPath id="335801bb4b"><path d="M 33.070312 3.0625 L 116.339844 3.0625 L 116.339844 25.800781 L 33.070312 25.800781 Z M 33.070312 3.0625 " clip-rule="nonzero"/></clipPath><clipPath id="de47fec86d"><path d="M 76 2.578125 L 82 2.578125 L 82 10 L 76 10 Z M 76 2.578125 " clip-rule="nonzero"/></clipPath><clipPath id="df0d82e791"><path d="M 2 15 L 6 15 L 6 18 L 2 18 Z M 2 15 " clip-rule="nonzero"/></clipPath><clipPath id="7e022a4850"><path d="M -2.042969 9.21875 L 24.386719 -4.460938 L 36.730469 19.386719 L 10.300781 33.066406 Z M -2.042969 9.21875 " clip-rule="nonzero"/></clipPath><clipPath id="6338666618"><path d="M -2.042969 9.21875 L 24.386719 -4.460938 L 36.730469 19.386719 L 10.300781 33.066406 Z M -2.042969 9.21875 " clip-rule="nonzero"/></clipPath><clipPath id="a95da88198"><path d="M -2.042969 9.21875 L 24.386719 -4.460938 L 36.730469 19.386719 L 10.300781 33.066406 Z M -2.042969 9.21875 " clip-rule="nonzero"/></clipPath><clipPath id="cbcbd893c6"><path d="M 7 4 L 10 4 L 10 8 L 7 8 Z M 7 4 " clip-rule="nonzero"/></clipPath><clipPath id="650b65fdad"><path d="M -2.042969 9.21875 L 24.386719 -4.460938 L 36.730469 19.386719 L 10.300781 33.066406 Z M -2.042969 9.21875 " clip-rule="nonzero"/></clipPath><clipPath id="5de0c4b621"><path d="M -2.042969 9.21875 L 24.386719 -4.460938 L 36.730469 19.386719 L 10.300781 33.066406 Z M -2.042969 9.21875 " clip-rule="nonzero"/></clipPath><clipPath id="fd9f9f4706"><path d="M -2.042969 9.21875 L 24.386719 -4.460938 L 36.730469 19.386719 L 10.300781 33.066406 Z M -2.042969 9.21875 " clip-rule="nonzero"/></clipPath><clipPath id="683c806f7c"><path d="M 26 3 L 28 3 L 28 7 L 26 7 Z M 26 3 " clip-rule="nonzero"/></clipPath><clipPath id="5ecb360171"><path d="M -2.042969 9.21875 L 24.386719 -4.460938 L 36.730469 19.386719 L 10.300781 33.066406 Z M -2.042969 9.21875 " clip-rule="nonzero"/></clipPath><clipPath id="da9fefd8db"><path d="M -2.042969 9.21875 L 24.386719 -4.460938 L 36.730469 19.386719 L 10.300781 33.066406 Z M -2.042969 9.21875 " clip-rule="nonzero"/></clipPath><clipPath id="feecda160c"><path d="M -2.042969 9.21875 L 24.386719 -4.460938 L 36.730469 19.386719 L 10.300781 33.066406 Z M -2.042969 9.21875 " clip-rule="nonzero"/></clipPath><clipPath id="5ca6ba26bd"><path d="M 15 0 L 18 0 L 18 4 L 15 4 Z M 15 0 " clip-rule="nonzero"/></clipPath><clipPath id="a60fcf8f9b"><path d="M -2.042969 9.21875 L 24.386719 -4.460938 L 36.730469 19.386719 L 10.300781 33.066406 Z M -2.042969 9.21875 " clip-rule="nonzero"/></clipPath><clipPath id="19e52df236"><path d="M -2.042969 9.21875 L 24.386719 -4.460938 L 36.730469 19.386719 L 10.300781 33.066406 Z M -2.042969 9.21875 " clip-rule="nonzero"/></clipPath><clipPath id="ca1cf9b7ce"><path d="M -2.042969 9.21875 L 24.386719 -4.460938 L 36.730469 19.386719 L 10.300781 33.066406 Z M -2.042969 9.21875 " clip-rule="nonzero"/></clipPath><clipPath id="80cd04e27e"><path d="M 3 1 L 32 1 L 32 29 L 3 29 Z M 3 1 " clip-rule="nonzero"/></clipPath><clipPath id="5714d7f6fc"><path d="M -2.042969 9.21875 L 24.386719 -4.460938 L 36.730469 19.386719 L 10.300781 33.066406 Z M -2.042969 9.21875 " clip-rule="nonzero"/></clipPath><clipPath id="d10216f577"><path d="M -2.042969 9.21875 L 24.386719 -4.460938 L 36.730469 19.386719 L 10.300781 33.066406 Z M -2.042969 9.21875 " clip-rule="nonzero"/></clipPath><clipPath id="adca049be1"><path d="M -2.042969 9.21875 L 24.386719 -4.460938 L 36.730469 19.386719 L 10.300781 33.066406 Z M -2.042969 9.21875 " clip-rule="nonzero"/></clipPath><clipPath id="32fdf21995"><path d="M 13 13 L 28 13 L 28 26 L 13 26 Z M 13 13 " clip-rule="nonzero"/></clipPath><clipPath id="362f643697"><path d="M -2.042969 9.21875 L 24.386719 -4.460938 L 36.730469 19.386719 L 10.300781 33.066406 Z M -2.042969 9.21875 " clip-rule="nonzero"/></clipPath><clipPath id="44651465c4"><path d="M -2.042969 9.21875 L 24.386719 -4.460938 L 36.730469 19.386719 L 10.300781 33.066406 Z M -2.042969 9.21875 " clip-rule="nonzero"/></clipPath><clipPath id="131a3a352a"><path d="M -2.042969 9.21875 L 24.386719 -4.460938 L 36.730469 19.386719 L 10.300781 33.066406 Z M -2.042969 9.21875 " clip-rule="nonzero"/></clipPath><clipPath id="95fc5f7a72"><path d="M 16 4 L 22 4 L 22 11 L 16 11 Z M 16 4 " clip-rule="nonzero"/></clipPath><clipPath id="d41dce2585"><path d="M -2.042969 9.21875 L 24.386719 -4.460938 L 36.730469 19.386719 L 10.300781 33.066406 Z M -2.042969 9.21875 " clip-rule="nonzero"/></clipPath><clipPath id="17bde93a7f"><path d="M -2.042969 9.21875 L 24.386719 -4.460938 L 36.730469 19.386719 L 10.300781 33.066406 Z M -2.042969 9.21875 " clip-rule="nonzero"/></clipPath><clipPath id="78a4dee005"><path d="M -2.042969 9.21875 L 24.386719 -4.460938 L 36.730469 19.386719 L 10.300781 33.066406 Z M -2.042969 9.21875 " clip-rule="nonzero"/></clipPath><clipPath id="cbb1765d8f"><path d="M 23 7 L 29 7 L 29 12 L 23 12 Z M 23 7 " clip-rule="nonzero"/></clipPath><clipPath id="0aa75e8717"><path d="M -2.042969 9.21875 L 24.386719 -4.460938 L 36.730469 19.386719 L 10.300781 33.066406 Z M -2.042969 9.21875 " clip-rule="nonzero"/></clipPath><clipPath id="900bc36e19"><path d="M -2.042969 9.21875 L 24.386719 -4.460938 L 36.730469 19.386719 L 10.300781 33.066406 Z M -2.042969 9.21875 " clip-rule="nonzero"/></clipPath><clipPath id="1feec5e25c"><path d="M -2.042969 9.21875 L 24.386719 -4.460938 L 36.730469 19.386719 L 10.300781 33.066406 Z M -2.042969 9.21875 " clip-rule="nonzero"/></clipPath><clipPath id="f7e223c198"><path d="M 6 16 L 11 16 L 11 21 L 6 21 Z M 6 16 " clip-rule="nonzero"/></clipPath><clipPath id="a57875bbaa"><path d="M -2.042969 9.21875 L 24.386719 -4.460938 L 36.730469 19.386719 L 10.300781 33.066406 Z M -2.042969 9.21875 " clip-rule="nonzero"/></clipPath><clipPath id="36ac00f01c"><path d="M -2.042969 9.21875 L 24.386719 -4.460938 L 36.730469 19.386719 L 10.300781 33.066406 Z M -2.042969 9.21875 " clip-rule="nonzero"/></clipPath><clipPath id="800565f436"><path d="M -2.042969 9.21875 L 24.386719 -4.460938 L 36.730469 19.386719 L 10.300781 33.066406 Z M -2.042969 9.21875 " clip-rule="nonzero"/></clipPath><clipPath id="e0fd3a25e9"><path d="M 9 7 L 15 7 L 15 14 L 9 14 Z M 9 7 " clip-rule="nonzero"/></clipPath><clipPath id="436e0523d0"><path d="M -2.042969 9.21875 L 24.386719 -4.460938 L 36.730469 19.386719 L 10.300781 33.066406 Z M -2.042969 9.21875 " clip-rule="nonzero"/></clipPath><clipPath id="b82f42b04c"><path d="M -2.042969 9.21875 L 24.386719 -4.460938 L 36.730469 19.386719 L 10.300781 33.066406 Z M -2.042969 9.21875 " clip-rule="nonzero"/></clipPath><clipPath id="984ddc4b87"><path d="M -2.042969 9.21875 L 24.386719 -4.460938 L 36.730469 19.386719 L 10.300781 33.066406 Z M -2.042969 9.21875 " clip-rule="nonzero"/></clipPath><clipPath id="499ed3b13b"><path d="M 14 17 L 18 17 L 18 22 L 14 22 Z M 14 17 " clip-rule="nonzero"/></clipPath><clipPath id="75b40b4d8f"><path d="M -2.042969 9.21875 L 24.386719 -4.460938 L 36.730469 19.386719 L 10.300781 33.066406 Z M -2.042969 9.21875 " clip-rule="nonzero"/></clipPath><clipPath id="55d851ec56"><path d="M -2.042969 9.21875 L 24.386719 -4.460938 L 36.730469 19.386719 L 10.300781 33.066406 Z M -2.042969 9.21875 " clip-rule="nonzero"/></clipPath><clipPath id="3b5eb7bf83"><path d="M -2.042969 9.21875 L 24.386719 -4.460938 L 36.730469 19.386719 L 10.300781 33.066406 Z M -2.042969 9.21875 " clip-rule="nonzero"/></clipPath><clipPath id="c685e48a18"><path d="M 7 17 L 9 17 L 9 20 L 7 20 Z M 7 17 " clip-rule="nonzero"/></clipPath><clipPath id="6e11c49976"><path d="M -2.042969 9.21875 L 24.386719 -4.460938 L 36.730469 19.386719 L 10.300781 33.066406 Z M -2.042969 9.21875 " clip-rule="nonzero"/></clipPath><clipPath id="513c69b95e"><path d="M -2.042969 9.21875 L 24.386719 -4.460938 L 36.730469 19.386719 L 10.300781 33.066406 Z M -2.042969 9.21875 " clip-rule="nonzero"/></clipPath><clipPath id="80961c8998"><path d="M -2.042969 9.21875 L 24.386719 -4.460938 L 36.730469 19.386719 L 10.300781 33.066406 Z M -2.042969 9.21875 " clip-rule="nonzero"/></clipPath><clipPath id="46e30ac851"><path d="M 9 9 L 12 9 L 12 11 L 9 11 Z M 9 9 " clip-rule="nonzero"/></clipPath><clipPath id="b5b80a7f06"><path d="M -2.042969 9.21875 L 24.386719 -4.460938 L 36.730469 19.386719 L 10.300781 33.066406 Z M -2.042969 9.21875 " clip-rule="nonzero"/></clipPath><clipPath id="0ad0e26c8a"><path d="M -2.042969 9.21875 L 24.386719 -4.460938 L 36.730469 19.386719 L 10.300781 33.066406 Z M -2.042969 9.21875 " clip-rule="nonzero"/></clipPath><clipPath id="7e537b3b04"><path d="M -2.042969 9.21875 L 24.386719 -4.460938 L 36.730469 19.386719 L 10.300781 33.066406 Z M -2.042969 9.21875 " clip-rule="nonzero"/></clipPath><clipPath id="42588cfefa"><path d="M 16 5 L 19 5 L 19 8 L 16 8 Z M 16 5 " clip-rule="nonzero"/></clipPath><clipPath id="156789d109"><path d="M -2.042969 9.21875 L 24.386719 -4.460938 L 36.730469 19.386719 L 10.300781 33.066406 Z M -2.042969 9.21875 " clip-rule="nonzero"/></clipPath><clipPath id="edfb56f394"><path d="M -2.042969 9.21875 L 24.386719 -4.460938 L 36.730469 19.386719 L 10.300781 33.066406 Z M -2.042969 9.21875 " clip-rule="nonzero"/></clipPath><clipPath id="1603c593fe"><path d="M -2.042969 9.21875 L 24.386719 -4.460938 L 36.730469 19.386719 L 10.300781 33.066406 Z M -2.042969 9.21875 " clip-rule="nonzero"/></clipPath><clipPath id="d6f2e3fb18"><path d="M 24 8 L 26 8 L 26 11 L 24 11 Z M 24 8 " clip-rule="nonzero"/></clipPath><clipPath id="cac6bcfd00"><path d="M -2.042969 9.21875 L 24.386719 -4.460938 L 36.730469 19.386719 L 10.300781 33.066406 Z M -2.042969 9.21875 " clip-rule="nonzero"/></clipPath><clipPath id="09e8cd12ef"><path d="M -2.042969 9.21875 L 24.386719 -4.460938 L 36.730469 19.386719 L 10.300781 33.066406 Z M -2.042969 9.21875 " clip-rule="nonzero"/></clipPath><clipPath id="717788e246"><path d="M -2.042969 9.21875 L 24.386719 -4.460938 L 36.730469 19.386719 L 10.300781 33.066406 Z M -2.042969 9.21875 " clip-rule="nonzero"/></clipPath></defs><g clip-path="url(#335801bb4b)"><path fill="#fcfcf0" d="M 57.042969 18.359375 C 56.859375 18.742188 56.652344 19.113281 56.496094 19.503906 C 55.976562 20.773438 55.480469 22.046875 54.96875 23.316406 C 54.835938 23.644531 54.683594 23.960938 54.523438 24.277344 C 54.375 24.570312 54.125 24.746094 53.8125 24.832031 C 53.304688 24.976562 52.792969 24.964844 52.289062 24.808594 C 51.855469 24.675781 51.558594 24.382812 51.351562 23.988281 C 51.003906 23.324219 50.800781 22.613281 50.757812 21.875 C 50.703125 20.804688 50.664062 19.726562 50.710938 18.65625 C 50.804688 16.667969 50.957031 14.6875 51.105469 12.703125 C 51.222656 11.164062 51.375 9.625 51.492188 8.082031 C 51.53125 7.570312 51.519531 7.050781 51.519531 6.539062 C 51.515625 6.332031 51.476562 6.128906 51.445312 5.820312 C 51.292969 6.011719 51.191406 6.125 51.105469 6.253906 C 50.433594 7.226562 49.886719 8.269531 49.410156 9.347656 C 48.753906 10.828125 48.117188 12.316406 47.460938 13.796875 C 47.324219 14.105469 47.15625 14.402344 46.992188 14.695312 C 46.808594 15.027344 46.511719 15.207031 46.152344 15.292969 C 45.65625 15.414062 45.160156 15.402344 44.667969 15.277344 C 44.15625 15.144531 43.777344 14.835938 43.507812 14.386719 C 43.105469 13.726562 42.792969 13.027344 42.609375 12.28125 C 42.304688 11.066406 42.03125 9.847656 41.742188 8.628906 C 41.722656 8.550781 41.699219 8.472656 41.601562 8.386719 C 41.554688 8.53125 41.5 8.675781 41.460938 8.820312 C 41.097656 10.175781 40.90625 11.5625 40.769531 12.953125 C 40.578125 14.859375 40.398438 16.765625 40.269531 18.675781 C 40.148438 20.453125 40.144531 22.234375 40.285156 24.015625 C 40.296875 24.132812 40.304688 24.25 40.304688 24.371094 C 40.3125 24.828125 40.214844 24.980469 39.78125 25.109375 C 39.273438 25.261719 38.761719 25.25 38.261719 25.082031 C 37.871094 24.957031 37.632812 24.667969 37.449219 24.316406 C 36.867188 23.203125 36.425781 22.035156 36.078125 20.828125 C 35.453125 18.660156 35.035156 16.445312 34.589844 14.238281 C 34.195312 12.261719 33.765625 10.292969 33.386719 8.308594 C 33.230469 7.488281 33.15625 6.648438 33.078125 5.816406 C 33.050781 5.558594 33.105469 5.289062 33.15625 5.03125 C 33.253906 4.507812 33.582031 4.175781 34.097656 4.109375 C 34.484375 4.054688 34.894531 4.058594 35.28125 4.117188 C 35.777344 4.1875 36.148438 4.5 36.34375 4.960938 C 36.546875 5.429688 36.734375 5.914062 36.867188 6.410156 C 37.683594 9.515625 38.351562 12.652344 38.984375 15.800781 C 39.003906 15.894531 39.039062 15.992188 39.140625 16.085938 C 39.207031 15.574219 39.277344 15.066406 39.34375 14.554688 C 39.609375 12.601562 39.851562 10.644531 40.148438 8.695312 C 40.285156 7.808594 40.539062 6.941406 40.726562 6.066406 C 40.84375 5.523438 41.179688 5.21875 41.707031 5.113281 C 43.363281 4.789062 44.492188 5.324219 45.171875 6.429688 C 45.460938 6.902344 45.691406 7.421875 45.878906 7.945312 C 46.261719 9.03125 46.476562 10.160156 46.597656 11.304688 C 46.609375 11.453125 46.628906 11.597656 46.652344 11.746094 C 46.65625 11.785156 46.683594 11.824219 46.71875 11.910156 C 46.816406 11.742188 46.902344 11.609375 46.972656 11.46875 C 47.558594 10.3125 48.117188 9.144531 48.730469 8.003906 C 49.28125 6.980469 49.894531 5.992188 50.464844 4.976562 C 50.867188 4.261719 51.492188 4.007812 52.269531 4.011719 C 53.5625 4.015625 54.40625 4.59375 54.875 5.808594 C 55.203125 6.65625 55.320312 7.554688 55.324219 8.453125 C 55.324219 9.730469 55.285156 11.015625 55.210938 12.292969 C 55.105469 14.054688 54.960938 15.816406 54.8125 17.578125 C 54.726562 18.574219 54.597656 19.570312 54.492188 20.5625 C 54.46875 20.777344 54.453125 20.988281 54.515625 21.222656 C 54.585938 21.101562 54.660156 20.980469 54.726562 20.859375 C 55.191406 20.003906 55.636719 19.140625 56.121094 18.296875 C 56.339844 17.917969 56.625 17.574219 56.90625 17.234375 C 57.035156 17.074219 57.097656 16.925781 57.109375 16.722656 C 57.222656 14.667969 57.960938 12.851562 59.289062 11.289062 C 60.636719 9.703125 62.371094 8.976562 64.445312 9.039062 C 65.320312 9.0625 66.121094 9.328125 66.824219 9.867188 C 67.699219 10.539062 68 11.445312 67.648438 12.492188 C 67.183594 13.882812 66.269531 14.90625 64.957031 15.5625 C 64.007812 16.039062 62.984375 16.246094 61.941406 16.359375 C 61.824219 16.371094 61.707031 16.386719 61.605469 16.398438 C 61.574219 16.433594 61.542969 16.453125 61.542969 16.476562 C 61.4375 17.855469 61.488281 19.214844 62.003906 20.519531 C 62.085938 20.726562 62.191406 20.921875 62.300781 21.113281 C 62.8125 21.964844 63.582031 22.28125 64.554688 22.167969 C 65.507812 22.050781 66.378906 21.714844 67.183594 21.203125 C 67.628906 20.914062 68.058594 20.601562 68.503906 20.3125 C 69.207031 19.855469 69.917969 19.40625 70.625 18.957031 C 70.761719 18.871094 70.871094 18.792969 70.910156 18.601562 C 71.257812 16.886719 72.308594 15.722656 73.84375 14.960938 C 74.515625 14.625 75.207031 14.332031 75.882812 14.011719 C 76.6875 13.628906 77.417969 13.132812 78.078125 12.539062 C 78.746094 11.933594 79.488281 11.492188 80.398438 11.355469 C 81.410156 11.195312 82.332031 11.441406 83.050781 12.136719 C 83.507812 12.574219 83.855469 13.148438 84.160156 13.714844 C 84.511719 14.371094 84.738281 15.097656 85.074219 15.769531 C 85.359375 16.34375 85.710938 16.890625 86.050781 17.441406 C 86.269531 17.792969 86.507812 18.128906 86.75 18.460938 C 87.480469 19.472656 87.65625 20.632812 87.574219 21.824219 C 87.535156 22.355469 87.300781 22.871094 87.136719 23.453125 C 87.699219 24.078125 88.40625 24.503906 89.359375 24.449219 C 90.464844 24.382812 91.449219 23.988281 92.363281 23.390625 C 93.398438 22.710938 94.257812 21.84375 95.019531 20.882812 C 96.394531 19.144531 97.449219 17.234375 98.136719 15.125 C 98.207031 14.90625 98.238281 14.664062 98.222656 14.4375 C 98.097656 12.65625 98.054688 10.875 98.125 9.09375 C 98.136719 8.84375 98.167969 8.59375 98.210938 8.347656 C 98.265625 8.003906 98.460938 7.75 98.785156 7.621094 C 99.765625 7.230469 100.738281 7.234375 101.699219 7.683594 C 102.097656 7.871094 102.34375 8.207031 102.441406 8.625 C 102.582031 9.242188 102.714844 9.863281 102.796875 10.488281 C 103.253906 14.039062 103.449219 17.613281 103.617188 21.1875 C 103.660156 22.160156 103.773438 23.125 103.863281 24.09375 C 103.871094 24.203125 103.914062 24.3125 103.960938 24.511719 C 104.136719 24.222656 104.289062 24.023438 104.390625 23.800781 C 104.839844 22.808594 105.296875 21.820312 105.707031 20.8125 C 106.472656 18.914062 107.035156 16.945312 107.574219 14.96875 C 107.652344 14.671875 107.75 14.378906 107.84375 14.082031 C 107.949219 13.75 108.199219 13.589844 108.53125 13.542969 C 109.238281 13.433594 109.710938 13.660156 110.074219 14.296875 C 110.5 15.046875 110.714844 15.875 110.941406 16.699219 C 111.285156 17.949219 111.621094 19.199219 112.011719 20.433594 C 112.179688 20.976562 112.460938 21.484375 112.714844 22 C 112.800781 22.175781 112.953125 22.324219 113.097656 22.515625 C 113.507812 21.941406 113.664062 21.332031 113.757812 20.707031 C 113.824219 20.226562 113.871094 19.738281 113.863281 19.253906 C 113.835938 17.78125 113.792969 16.308594 113.730469 14.839844 C 113.675781 13.542969 113.589844 12.25 113.507812 10.957031 C 113.445312 9.945312 113.328125 8.929688 113.308594 7.917969 C 113.277344 6.546875 113.304688 5.179688 113.335938 3.8125 C 113.34375 3.324219 113.523438 3.164062 114.007812 3.097656 C 114.164062 3.074219 114.332031 3.066406 114.492188 3.082031 C 115.074219 3.132812 115.316406 3.308594 115.453125 3.878906 C 115.644531 4.710938 115.777344 5.554688 115.96875 6.386719 C 116.304688 7.847656 116.34375 9.335938 116.386719 10.820312 C 116.460938 13.386719 116.359375 15.949219 116.132812 18.503906 C 116.046875 19.515625 115.847656 20.515625 115.515625 21.480469 C 115.417969 21.757812 115.304688 22.03125 115.171875 22.292969 C 114.496094 23.632812 112.941406 24.019531 111.695312 23.167969 C 111.277344 22.882812 110.957031 22.5 110.671875 22.082031 C 110.003906 21.089844 109.597656 19.992188 109.34375 18.828125 C 109.109375 17.75 108.878906 16.671875 108.644531 15.59375 C 108.628906 15.511719 108.601562 15.433594 108.492188 15.332031 C 108.421875 15.53125 108.347656 15.722656 108.285156 15.921875 C 107.632812 18.109375 106.992188 20.296875 106.332031 22.480469 C 106.140625 23.117188 105.941406 23.75 105.695312 24.363281 C 105.542969 24.738281 105.320312 25.097656 105.085938 25.429688 C 104.789062 25.847656 104.351562 26.046875 103.839844 26.101562 C 102.773438 26.210938 101.902344 25.855469 101.230469 25.019531 C 100.605469 24.242188 100.171875 23.359375 99.804688 22.4375 C 99.160156 20.828125 98.8125 19.144531 98.5625 17.4375 C 98.539062 17.28125 98.511719 17.125 98.46875 16.863281 C 98.351562 17.082031 98.28125 17.203125 98.21875 17.332031 C 97.355469 19.117188 96.308594 20.785156 94.980469 22.261719 C 93.886719 23.484375 92.59375 24.40625 90.976562 24.808594 C 89.996094 25.050781 88.996094 25.144531 88 24.9375 C 87.488281 24.828125 87 24.613281 86.445312 24.425781 C 86.421875 24.441406 86.339844 24.5 86.265625 24.566406 C 85.644531 25.097656 84.917969 25.304688 84.105469 25.320312 C 82.828125 25.34375 81.730469 24.910156 80.699219 24.179688 C 79.476562 23.3125 78.09375 22.96875 76.605469 23.175781 C 76.203125 23.230469 75.816406 23.40625 75.421875 23.519531 C 72.917969 24.238281 71.152344 22.375 70.992188 20.320312 C 70.972656 20.089844 70.941406 19.855469 70.910156 19.542969 C 70.726562 19.675781 70.597656 19.757812 70.476562 19.855469 C 69.792969 20.414062 69.121094 20.988281 68.425781 21.535156 C 66.292969 23.207031 63.890625 23.714844 61.269531 23.066406 C 58.957031 22.492188 57.609375 20.988281 57.203125 18.640625 C 57.1875 18.558594 57.171875 18.476562 57.15625 18.390625 C 57.117188 18.382812 57.082031 18.371094 57.042969 18.359375 Z M 61.578125 15.769531 C 61.9375 15.707031 62.199219 15.679688 62.453125 15.617188 C 62.765625 15.542969 63.082031 15.460938 63.382812 15.34375 C 64.539062 14.894531 65.332031 14.074219 65.800781 12.925781 C 65.976562 12.492188 66.015625 12.042969 65.941406 11.585938 C 65.835938 10.914062 65.488281 10.421875 64.859375 10.132812 C 64.597656 10.011719 64.363281 10.019531 64.113281 10.167969 C 63.722656 10.402344 63.445312 10.742188 63.21875 11.121094 C 62.546875 12.238281 62.078125 13.4375 61.785156 14.707031 C 61.710938 15.03125 61.65625 15.359375 61.578125 15.769531 " fill-opacity="1" fill-rule="nonzero"/></g><g clip-path="url(#de47fec86d)"><path fill="#fcfcf0" d="M 81.777344 5.960938 C 81.742188 6.722656 81.667969 7.316406 81.433594 7.882812 C 81.222656 8.398438 80.878906 8.789062 80.375 9.015625 C 80 9.1875 79.613281 9.335938 79.226562 9.464844 C 78.507812 9.703125 77.886719 9.496094 77.371094 8.972656 C 76.941406 8.535156 76.632812 8.027344 76.488281 7.417969 C 76.285156 6.5625 76.179688 5.710938 76.453125 4.847656 C 76.746094 3.917969 77.285156 3.210938 78.203125 2.8125 C 78.753906 2.574219 79.28125 2.625 79.773438 2.910156 C 80.664062 3.425781 81.355469 4.136719 81.644531 5.15625 C 81.734375 5.464844 81.75 5.792969 81.777344 5.960938 " fill-opacity="1" fill-rule="nonzero"/></g><path fill="#fcfcf0" d="M 89.167969 7.472656 C 89.089844 7.917969 89.050781 8.375 88.925781 8.808594 C 88.597656 9.964844 87.828125 10.695312 86.660156 10.992188 C 86.433594 11.050781 86.203125 11.09375 85.96875 11.125 C 84.726562 11.285156 83.625 10.488281 83.5625 9.238281 C 83.441406 6.917969 84.65625 5.320312 86.941406 4.902344 C 87.667969 4.769531 88.269531 5.074219 88.679688 5.699219 C 89.03125 6.234375 89.183594 6.824219 89.167969 7.472656 " fill-opacity="1" fill-rule="nonzero"/><path fill="#fcfcf0" d="M 69.636719 9.660156 C 69.6875 9.28125 69.6875 8.886719 69.796875 8.527344 C 70.136719 7.398438 70.917969 6.730469 72.066406 6.488281 C 72.53125 6.390625 72.933594 6.546875 73.304688 6.816406 C 74.285156 7.53125 74.667969 8.519531 74.597656 9.703125 C 74.570312 10.15625 74.5 10.609375 74.429688 11.058594 C 74.296875 11.929688 73.773438 12.550781 72.96875 12.785156 C 71.804688 13.125 70.726562 12.988281 70.082031 11.714844 C 69.753906 11.066406 69.636719 10.382812 69.636719 9.660156 " fill-opacity="1" fill-rule="nonzero"/><path fill="#fcfcf0" d="M 89.207031 17.167969 C 89.042969 17.140625 88.777344 17.125 88.527344 17.054688 C 87.710938 16.832031 87.253906 16.160156 87.355469 15.324219 C 87.527344 13.941406 88.714844 12.445312 90.285156 12.167969 C 91.199219 12.003906 92.113281 12.429688 92.558594 13.242188 C 93.265625 14.519531 92.78125 16.007812 91.441406 16.667969 C 90.769531 17 90.050781 17.128906 89.207031 17.167969 " fill-opacity="1" fill-rule="nonzero"/><g clip-path="url(#df0d82e791)"><g clip-path="url(#7e022a4850)"><g clip-path="url(#6338666618)"><g clip-path="url(#a95da88198)"><path fill="#d2d5d8" d="M 4.441406 17.4375 C 4.441406 17.4375 2.363281 16.441406 2.570312 15.5 C 2.773438 14.558594 5.707031 16.78125 5.707031 16.78125 L 4.441406 17.4375 " fill-opacity="1" fill-rule="nonzero"/></g></g></g></g><g clip-path="url(#cbcbd893c6)"><g clip-path="url(#650b65fdad)"><g clip-path="url(#5de0c4b621)"><g clip-path="url(#fd9f9f4706)"><path fill="#d2d5d8" d="M 8.441406 7.214844 C 8.441406 7.214844 7.03125 5.394531 7.636719 4.644531 C 8.242188 3.890625 9.867188 7.191406 9.867188 7.191406 L 8.441406 7.214844 " fill-opacity="1" fill-rule="nonzero"/></g></g></g></g><g clip-path="url(#683c806f7c)"><g clip-path="url(#5ecb360171)"><g clip-path="url(#da9fefd8db)"><g clip-path="url(#feecda160c)"><path fill="#d2d5d8" d="M 27.761719 5.753906 C 27.761719 5.753906 28.148438 3.484375 27.261719 3.109375 C 26.371094 2.734375 26.492188 6.410156 26.492188 6.410156 L 27.761719 5.753906 " fill-opacity="1" fill-rule="nonzero"/></g></g></g></g><g clip-path="url(#5ca6ba26bd)"><g clip-path="url(#a60fcf8f9b)"><g clip-path="url(#19e52df236)"><g clip-path="url(#ca1cf9b7ce)"><path fill="#d2d5d8" d="M 17.792969 2.375 C 17.792969 2.375 17.121094 0.171875 16.160156 0.230469 C 15.195312 0.292969 16.949219 3.527344 16.949219 3.527344 L 17.792969 2.375 " fill-opacity="1" fill-rule="nonzero"/></g></g></g></g><g clip-path="url(#80cd04e27e)"><g clip-path="url(#5714d7f6fc)"><g clip-path="url(#d10216f577)"><g clip-path="url(#adca049be1)"><path fill="#fcb054" d="M 30.316406 7.265625 C 30.125 6.9375 29.90625 6.640625 29.660156 6.375 C 28.996094 5.664062 28.128906 5.152344 27.191406 4.886719 C 26.183594 4.601562 25.105469 4.898438 24.136719 4.546875 C 23.21875 4.21875 22.878906 3.3125 22.117188 2.835938 C 21.339844 2.347656 20.488281 1.980469 19.589844 1.789062 C 17.84375 1.421875 15.894531 1.746094 14.695312 3.167969 C 14.363281 3.5625 14.082031 4.003906 13.710938 4.363281 C 13.191406 4.859375 12.722656 4.945312 12.054688 4.898438 C 9.808594 4.742188 7.757812 6.464844 6.929688 8.445312 C 6.46875 9.539062 6.371094 10.667969 6.621094 11.816406 C 6.746094 12.402344 6.847656 13.039062 6.582031 13.578125 C 6.285156 14.183594 5.535156 14.457031 5.074219 14.921875 C 3.925781 16.078125 3.546875 17.835938 3.734375 19.414062 C 3.792969 19.902344 3.921875 20.375 4.109375 20.828125 C 4.609375 22.003906 5.507812 22.933594 6.648438 23.449219 C 7.191406 23.695312 7.773438 23.835938 8.367188 23.875 C 8.960938 23.914062 9.660156 23.570312 10.1875 23.953125 C 10.429688 24.128906 10.601562 24.386719 10.757812 24.640625 C 11.789062 26.296875 12.773438 27.535156 14.6875 28.183594 C 15.628906 28.503906 16.632812 28.621094 17.625 28.550781 C 18.742188 28.464844 19.652344 28.132812 20.636719 27.605469 C 22.257812 26.738281 23.847656 25.859375 25.503906 25.066406 C 28.910156 23.4375 32.054688 19.386719 30.066406 15.566406 C 29.835938 15.125 29.542969 14.703125 29.457031 14.214844 C 29.320312 13.421875 29.917969 13.148438 30.320312 12.601562 C 31.472656 11.019531 31.269531 8.886719 30.316406 7.265625 " fill-opacity="1" fill-rule="nonzero"/></g></g></g></g><g clip-path="url(#32fdf21995)"><g clip-path="url(#362f643697)"><g clip-path="url(#44651465c4)"><g clip-path="url(#131a3a352a)"><path fill="#705449" d="M 17.351562 14.273438 C 19.644531 12.945312 22.414062 13.546875 24.742188 14.542969 C 25.753906 14.976562 26.589844 15.621094 27.101562 16.605469 C 28.078125 18.492188 27.128906 20.921875 24.988281 22.03125 C 23.855469 22.617188 22.613281 22.714844 21.554688 22.398438 C 21.195312 23.449219 20.398438 24.40625 19.265625 24.992188 C 17.121094 26.101562 14.59375 25.472656 13.617188 23.585938 C 13.109375 22.605469 13.0625 21.5625 13.289062 20.492188 C 13.777344 18.171875 15.054688 15.757812 17.113281 14.421875 C 17.191406 14.371094 17.273438 14.320312 17.351562 14.273438 " fill-opacity="1" fill-rule="nonzero"/></g></g></g></g><g clip-path="url(#95fc5f7a72)"><g clip-path="url(#d41dce2585)"><g clip-path="url(#17bde93a7f)"><g clip-path="url(#78a4dee005)"><path fill="#705449" d="M 21.222656 6.167969 C 21.570312 6.691406 21.738281 7.324219 21.636719 7.964844 C 21.445312 9.179688 20.246094 10.226562 18.929688 10.160156 C 17.6875 10.09375 16.707031 9.132812 16.277344 8.140625 C 15.878906 7.21875 15.996094 5.898438 16.933594 5.140625 C 18.074219 4.226562 19.832031 4.851562 20.695312 5.582031 C 20.898438 5.753906 21.078125 5.953125 21.222656 6.167969 " fill-opacity="1" fill-rule="nonzero"/></g></g></g></g><g clip-path="url(#cbb1765d8f)"><g clip-path="url(#0aa75e8717)"><g clip-path="url(#900bc36e19)"><g clip-path="url(#1feec5e25c)"><path fill="#705449" d="M 27.75 8.855469 C 28.007812 9.269531 28.121094 9.769531 28.027344 10.269531 C 27.84375 11.21875 26.882812 12.011719 25.859375 11.929688 C 24.894531 11.851562 24.15625 11.078125 23.847656 10.289062 C 23.5625 9.554688 23.6875 8.523438 24.4375 7.949219 C 25.347656 7.257812 26.703125 7.789062 27.355469 8.382812 C 27.507812 8.519531 27.644531 8.679688 27.75 8.855469 " fill-opacity="1" fill-rule="nonzero"/></g></g></g></g><g clip-path="url(#f7e223c198)"><g clip-path="url(#a57875bbaa)"><g clip-path="url(#36ac00f01c)"><g clip-path="url(#800565f436)"><path fill="#705449" d="M 6.914062 19.640625 C 7.105469 20.089844 7.449219 20.472656 7.914062 20.683594 C 8.789062 21.082031 9.992188 20.753906 10.515625 19.871094 C 11.011719 19.039062 10.804688 17.988281 10.339844 17.28125 C 9.90625 16.625 8.988281 16.128906 8.089844 16.414062 C 7 16.757812 6.652344 18.167969 6.757812 19.042969 C 6.78125 19.25 6.835938 19.449219 6.914062 19.640625 " fill-opacity="1" fill-rule="nonzero"/></g></g></g></g><g clip-path="url(#e0fd3a25e9)"><g clip-path="url(#436e0523d0)"><g clip-path="url(#b82f42b04c)"><g clip-path="url(#984ddc4b87)"><path fill="#705449" d="M 14.6875 10.5625 C 14.78125 11.191406 14.667969 11.859375 14.3125 12.441406 C 13.640625 13.542969 12.148438 14.125 11.011719 13.589844 C 9.9375 13.085938 9.46875 11.808594 9.5 10.699219 C 9.527344 9.667969 10.175781 8.433594 11.320312 8.042969 C 12.703125 7.5625 14 8.796875 14.464844 9.808594 C 14.574219 10.046875 14.648438 10.300781 14.6875 10.5625 " fill-opacity="1" fill-rule="nonzero"/></g></g></g></g><g clip-path="url(#499ed3b13b)"><g clip-path="url(#75b40b4d8f)"><g clip-path="url(#55d851ec56)"><g clip-path="url(#3b5eb7bf83)"><path fill="#7b6157" d="M 16.832031 17.128906 C 17.46875 17.464844 17.511719 18.625 16.929688 19.710938 C 16.347656 20.800781 15.355469 21.410156 14.71875 21.070312 C 14.082031 20.730469 14.039062 19.574219 14.621094 18.484375 C 15.203125 17.398438 16.191406 16.789062 16.832031 17.128906 " fill-opacity="1" fill-rule="nonzero"/></g></g></g></g><g clip-path="url(#c685e48a18)"><g clip-path="url(#6e11c49976)"><g clip-path="url(#513c69b95e)"><g clip-path="url(#80961c8998)"><path fill="#7b6157" d="M 8.304688 17.394531 C 8.644531 17.578125 8.710938 18.113281 8.453125 18.59375 C 8.199219 19.070312 7.714844 19.3125 7.375 19.132812 C 7.03125 18.953125 6.964844 18.417969 7.222656 17.9375 C 7.480469 17.457031 7.960938 17.214844 8.304688 17.394531 " fill-opacity="1" fill-rule="nonzero"/></g></g></g></g><g clip-path="url(#46e30ac851)"><g clip-path="url(#b5b80a7f06)"><g clip-path="url(#0ad0e26c8a)"><g clip-path="url(#7e537b3b04)"><path fill="#7b6157" d="M 11.226562 9.070312 C 11.566406 9.25 11.632812 9.785156 11.375 10.265625 C 11.117188 10.746094 10.636719 10.988281 10.296875 10.808594 C 9.953125 10.625 9.886719 10.089844 10.144531 9.609375 C 10.402344 9.132812 10.882812 8.890625 11.226562 9.070312 " fill-opacity="1" fill-rule="nonzero"/></g></g></g></g><g clip-path="url(#42588cfefa)"><g clip-path="url(#156789d109)"><g clip-path="url(#edfb56f394)"><g clip-path="url(#1603c593fe)"><path fill="#7b6157" d="M 17.914062 5.53125 C 18.253906 5.714844 18.324219 6.25 18.066406 6.726562 C 17.808594 7.207031 17.324219 7.449219 16.984375 7.269531 C 16.644531 7.089844 16.578125 6.554688 16.835938 6.074219 C 17.089844 5.59375 17.574219 5.351562 17.914062 5.53125 " fill-opacity="1" fill-rule="nonzero"/></g></g></g></g><g clip-path="url(#d6f2e3fb18)"><g clip-path="url(#cac6bcfd00)"><g clip-path="url(#09e8cd12ef)"><g clip-path="url(#717788e246)"><path fill="#7b6157" d="M 25.359375 8.238281 C 25.699219 8.421875 25.769531 8.957031 25.511719 9.4375 C 25.253906 9.914062 24.769531 10.15625 24.429688 9.976562 C 24.089844 9.796875 24.023438 9.261719 24.28125 8.78125 C 24.535156 8.300781 25.019531 8.058594 25.359375 8.238281 " fill-opacity="1" fill-rule="nonzero"/></g></g></g></g></svg>